<mxfile host="app.diagrams.net" modified="2023-09-30T20:07:45.059Z" agent="Mozilla/5.0 (Windows NT 10.0; Win64; x64) AppleWebKit/537.36 (KHTML, like Gecko) Chrome/117.0.0.0 Safari/537.36" etag="pBppxwpCoilh7fVJ6Nke" version="22.0.0" type="github">
  <diagram id="C5RBs43oDa-KdzZeNtuy" name="Page-1">
    <mxGraphModel dx="1645" dy="518" grid="1" gridSize="10" guides="1" tooltips="1" connect="1" arrows="1" fold="1" page="1" pageScale="1" pageWidth="827" pageHeight="1169" math="0" shadow="0">
      <root>
        <mxCell id="WIyWlLk6GJQsqaUBKTNV-0" />
        <mxCell id="WIyWlLk6GJQsqaUBKTNV-1" parent="WIyWlLk6GJQsqaUBKTNV-0" />
        <mxCell id="s34speLlv4YLylVvRb2c-0" value="Conta" style="swimlane;fontStyle=2;align=center;verticalAlign=top;childLayout=stackLayout;horizontal=1;startSize=26;horizontalStack=0;resizeParent=1;resizeLast=0;collapsible=1;marginBottom=0;rounded=0;shadow=0;strokeWidth=1;fillColor=#dae8fc;strokeColor=#6c8ebf;" vertex="1" parent="WIyWlLk6GJQsqaUBKTNV-1">
          <mxGeometry x="-820" y="238" width="170" height="138" as="geometry">
            <mxRectangle x="230" y="140" width="160" height="26" as="alternateBounds" />
          </mxGeometry>
        </mxCell>
        <mxCell id="s34speLlv4YLylVvRb2c-1" value="+ Nome Completo: varchar(100)" style="text;align=left;verticalAlign=top;spacingLeft=4;spacingRight=4;overflow=hidden;rotatable=0;points=[[0,0.5],[1,0.5]];portConstraint=eastwest;" vertex="1" parent="s34speLlv4YLylVvRb2c-0">
          <mxGeometry y="26" width="170" height="26" as="geometry" />
        </mxCell>
        <mxCell id="s34speLlv4YLylVvRb2c-2" value="+ Email: varchar(100)" style="text;align=left;verticalAlign=top;spacingLeft=4;spacingRight=4;overflow=hidden;rotatable=0;points=[[0,0.5],[1,0.5]];portConstraint=eastwest;rounded=0;shadow=0;html=0;" vertex="1" parent="s34speLlv4YLylVvRb2c-0">
          <mxGeometry y="52" width="170" height="26" as="geometry" />
        </mxCell>
        <mxCell id="s34speLlv4YLylVvRb2c-3" value="+ Avatar: Blob" style="text;align=left;verticalAlign=top;spacingLeft=4;spacingRight=4;overflow=hidden;rotatable=0;points=[[0,0.5],[1,0.5]];portConstraint=eastwest;rounded=0;shadow=0;html=0;" vertex="1" parent="s34speLlv4YLylVvRb2c-0">
          <mxGeometry y="78" width="170" height="26" as="geometry" />
        </mxCell>
        <mxCell id="s34speLlv4YLylVvRb2c-5" value="+ Receita: float" style="text;align=left;verticalAlign=top;spacingLeft=4;spacingRight=4;overflow=hidden;rotatable=0;points=[[0,0.5],[1,0.5]];portConstraint=eastwest;" vertex="1" parent="s34speLlv4YLylVvRb2c-0">
          <mxGeometry y="104" width="170" height="26" as="geometry" />
        </mxCell>
        <mxCell id="s34speLlv4YLylVvRb2c-12" value="Despesa" style="swimlane;fontStyle=2;align=center;verticalAlign=top;childLayout=stackLayout;horizontal=1;startSize=26;horizontalStack=0;resizeParent=1;resizeLast=0;collapsible=1;marginBottom=0;rounded=0;shadow=0;strokeWidth=1;fillColor=#f8cecc;strokeColor=#b85450;" vertex="1" parent="WIyWlLk6GJQsqaUBKTNV-1">
          <mxGeometry x="-460" y="80" width="170" height="210" as="geometry">
            <mxRectangle x="230" y="140" width="160" height="26" as="alternateBounds" />
          </mxGeometry>
        </mxCell>
        <mxCell id="s34speLlv4YLylVvRb2c-15" value="+ Valor: float" style="text;align=left;verticalAlign=top;spacingLeft=4;spacingRight=4;overflow=hidden;rotatable=0;points=[[0,0.5],[1,0.5]];portConstraint=eastwest;rounded=0;shadow=0;html=0;" vertex="1" parent="s34speLlv4YLylVvRb2c-12">
          <mxGeometry y="26" width="170" height="26" as="geometry" />
        </mxCell>
        <mxCell id="s34speLlv4YLylVvRb2c-14" value="+ Data: Date" style="text;align=left;verticalAlign=top;spacingLeft=4;spacingRight=4;overflow=hidden;rotatable=0;points=[[0,0.5],[1,0.5]];portConstraint=eastwest;rounded=0;shadow=0;html=0;" vertex="1" parent="s34speLlv4YLylVvRb2c-12">
          <mxGeometry y="52" width="170" height="26" as="geometry" />
        </mxCell>
        <mxCell id="s34speLlv4YLylVvRb2c-18" value="+ Descrição: varchar(100)" style="text;align=left;verticalAlign=top;spacingLeft=4;spacingRight=4;overflow=hidden;rotatable=0;points=[[0,0.5],[1,0.5]];portConstraint=eastwest;rounded=0;shadow=0;html=0;" vertex="1" parent="s34speLlv4YLylVvRb2c-12">
          <mxGeometry y="78" width="170" height="26" as="geometry" />
        </mxCell>
        <mxCell id="s34speLlv4YLylVvRb2c-20" value="+ Categoria: Object" style="text;align=left;verticalAlign=top;spacingLeft=4;spacingRight=4;overflow=hidden;rotatable=0;points=[[0,0.5],[1,0.5]];portConstraint=eastwest;rounded=0;shadow=0;html=0;" vertex="1" parent="s34speLlv4YLylVvRb2c-12">
          <mxGeometry y="104" width="170" height="26" as="geometry" />
        </mxCell>
        <mxCell id="s34speLlv4YLylVvRb2c-19" value="+ Forma de pagamento: Enum" style="text;align=left;verticalAlign=top;spacingLeft=4;spacingRight=4;overflow=hidden;rotatable=0;points=[[0,0.5],[1,0.5]];portConstraint=eastwest;rounded=0;shadow=0;html=0;" vertex="1" parent="s34speLlv4YLylVvRb2c-12">
          <mxGeometry y="130" width="170" height="26" as="geometry" />
        </mxCell>
        <mxCell id="s34speLlv4YLylVvRb2c-21" value="+ Num. Parcelas: Int" style="text;align=left;verticalAlign=top;spacingLeft=4;spacingRight=4;overflow=hidden;rotatable=0;points=[[0,0.5],[1,0.5]];portConstraint=eastwest;rounded=0;shadow=0;html=0;" vertex="1" parent="s34speLlv4YLylVvRb2c-12">
          <mxGeometry y="156" width="170" height="26" as="geometry" />
        </mxCell>
        <mxCell id="s34speLlv4YLylVvRb2c-22" value="+ Pago: boolean" style="text;align=left;verticalAlign=top;spacingLeft=4;spacingRight=4;overflow=hidden;rotatable=0;points=[[0,0.5],[1,0.5]];portConstraint=eastwest;rounded=0;shadow=0;html=0;" vertex="1" parent="s34speLlv4YLylVvRb2c-12">
          <mxGeometry y="182" width="170" height="26" as="geometry" />
        </mxCell>
        <mxCell id="s34speLlv4YLylVvRb2c-23" value="Categoria" style="swimlane;fontStyle=2;align=center;verticalAlign=top;childLayout=stackLayout;horizontal=1;startSize=26;horizontalStack=0;resizeParent=1;resizeLast=0;collapsible=1;marginBottom=0;rounded=0;shadow=0;strokeWidth=1;fillColor=#dae8fc;strokeColor=#6c8ebf;" vertex="1" parent="WIyWlLk6GJQsqaUBKTNV-1">
          <mxGeometry x="-175" y="184" width="145" height="54" as="geometry">
            <mxRectangle x="230" y="140" width="160" height="26" as="alternateBounds" />
          </mxGeometry>
        </mxCell>
        <mxCell id="s34speLlv4YLylVvRb2c-24" value="+ Nome: varchar(100)" style="text;align=left;verticalAlign=top;spacingLeft=4;spacingRight=4;overflow=hidden;rotatable=0;points=[[0,0.5],[1,0.5]];portConstraint=eastwest;" vertex="1" parent="s34speLlv4YLylVvRb2c-23">
          <mxGeometry y="26" width="145" height="26" as="geometry" />
        </mxCell>
        <mxCell id="s34speLlv4YLylVvRb2c-31" value="Cartão" style="swimlane;fontStyle=2;align=center;verticalAlign=top;childLayout=stackLayout;horizontal=1;startSize=26;horizontalStack=0;resizeParent=1;resizeLast=0;collapsible=1;marginBottom=0;rounded=0;shadow=0;strokeWidth=1;fillColor=#dae8fc;strokeColor=#6c8ebf;" vertex="1" parent="WIyWlLk6GJQsqaUBKTNV-1">
          <mxGeometry x="-460" y="530" width="170" height="182" as="geometry">
            <mxRectangle x="230" y="140" width="160" height="26" as="alternateBounds" />
          </mxGeometry>
        </mxCell>
        <mxCell id="s34speLlv4YLylVvRb2c-32" value="+ Número: int" style="text;align=left;verticalAlign=top;spacingLeft=4;spacingRight=4;overflow=hidden;rotatable=0;points=[[0,0.5],[1,0.5]];portConstraint=eastwest;" vertex="1" parent="s34speLlv4YLylVvRb2c-31">
          <mxGeometry y="26" width="170" height="26" as="geometry" />
        </mxCell>
        <mxCell id="s34speLlv4YLylVvRb2c-33" value="+ Tipo: Enum" style="text;align=left;verticalAlign=top;spacingLeft=4;spacingRight=4;overflow=hidden;rotatable=0;points=[[0,0.5],[1,0.5]];portConstraint=eastwest;rounded=0;shadow=0;html=0;" vertex="1" parent="s34speLlv4YLylVvRb2c-31">
          <mxGeometry y="52" width="170" height="26" as="geometry" />
        </mxCell>
        <mxCell id="s34speLlv4YLylVvRb2c-34" value="+ Bandeira: Enum" style="text;align=left;verticalAlign=top;spacingLeft=4;spacingRight=4;overflow=hidden;rotatable=0;points=[[0,0.5],[1,0.5]];portConstraint=eastwest;rounded=0;shadow=0;html=0;" vertex="1" parent="s34speLlv4YLylVvRb2c-31">
          <mxGeometry y="78" width="170" height="26" as="geometry" />
        </mxCell>
        <mxCell id="s34speLlv4YLylVvRb2c-37" value="+ Limite: float" style="text;align=left;verticalAlign=top;spacingLeft=4;spacingRight=4;overflow=hidden;rotatable=0;points=[[0,0.5],[1,0.5]];portConstraint=eastwest;rounded=0;shadow=0;html=0;" vertex="1" parent="s34speLlv4YLylVvRb2c-31">
          <mxGeometry y="104" width="170" height="26" as="geometry" />
        </mxCell>
        <mxCell id="s34speLlv4YLylVvRb2c-38" value="+ Valor Atual: float" style="text;align=left;verticalAlign=top;spacingLeft=4;spacingRight=4;overflow=hidden;rotatable=0;points=[[0,0.5],[1,0.5]];portConstraint=eastwest;rounded=0;shadow=0;html=0;" vertex="1" parent="s34speLlv4YLylVvRb2c-31">
          <mxGeometry y="130" width="170" height="26" as="geometry" />
        </mxCell>
        <mxCell id="s34speLlv4YLylVvRb2c-39" value="+ Dia Fechamento: int" style="text;align=left;verticalAlign=top;spacingLeft=4;spacingRight=4;overflow=hidden;rotatable=0;points=[[0,0.5],[1,0.5]];portConstraint=eastwest;rounded=0;shadow=0;html=0;" vertex="1" parent="s34speLlv4YLylVvRb2c-31">
          <mxGeometry y="156" width="170" height="26" as="geometry" />
        </mxCell>
        <mxCell id="s34speLlv4YLylVvRb2c-40" value="Receita" style="swimlane;fontStyle=2;align=center;verticalAlign=top;childLayout=stackLayout;horizontal=1;startSize=26;horizontalStack=0;resizeParent=1;resizeLast=0;collapsible=1;marginBottom=0;rounded=0;shadow=0;strokeWidth=1;fillColor=#d5e8d4;strokeColor=#82b366;" vertex="1" parent="WIyWlLk6GJQsqaUBKTNV-1">
          <mxGeometry x="-460" y="340" width="170" height="104" as="geometry">
            <mxRectangle x="230" y="140" width="160" height="26" as="alternateBounds" />
          </mxGeometry>
        </mxCell>
        <mxCell id="s34speLlv4YLylVvRb2c-41" value="+ Valor: float" style="text;align=left;verticalAlign=top;spacingLeft=4;spacingRight=4;overflow=hidden;rotatable=0;points=[[0,0.5],[1,0.5]];portConstraint=eastwest;rounded=0;shadow=0;html=0;" vertex="1" parent="s34speLlv4YLylVvRb2c-40">
          <mxGeometry y="26" width="170" height="26" as="geometry" />
        </mxCell>
        <mxCell id="s34speLlv4YLylVvRb2c-42" value="+ Data: Date" style="text;align=left;verticalAlign=top;spacingLeft=4;spacingRight=4;overflow=hidden;rotatable=0;points=[[0,0.5],[1,0.5]];portConstraint=eastwest;rounded=0;shadow=0;html=0;" vertex="1" parent="s34speLlv4YLylVvRb2c-40">
          <mxGeometry y="52" width="170" height="26" as="geometry" />
        </mxCell>
        <mxCell id="s34speLlv4YLylVvRb2c-43" value="+ Descrição: varchar(100)" style="text;align=left;verticalAlign=top;spacingLeft=4;spacingRight=4;overflow=hidden;rotatable=0;points=[[0,0.5],[1,0.5]];portConstraint=eastwest;rounded=0;shadow=0;html=0;" vertex="1" parent="s34speLlv4YLylVvRb2c-40">
          <mxGeometry y="78" width="170" height="26" as="geometry" />
        </mxCell>
        <mxCell id="s34speLlv4YLylVvRb2c-49" value="Relation" style="endArrow=open;html=1;endSize=12;startArrow=diamondThin;startSize=14;startFill=0;edgeStyle=orthogonalEdgeStyle;rounded=0;entryX=0;entryY=0.25;entryDx=0;entryDy=0;" edge="1" parent="WIyWlLk6GJQsqaUBKTNV-1" source="s34speLlv4YLylVvRb2c-20" target="s34speLlv4YLylVvRb2c-23">
          <mxGeometry relative="1" as="geometry">
            <mxPoint x="-30" y="640" as="sourcePoint" />
            <mxPoint x="130" y="640" as="targetPoint" />
          </mxGeometry>
        </mxCell>
        <mxCell id="s34speLlv4YLylVvRb2c-50" value="1" style="edgeLabel;resizable=0;html=1;align=left;verticalAlign=top;" connectable="0" vertex="1" parent="s34speLlv4YLylVvRb2c-49">
          <mxGeometry x="-1" relative="1" as="geometry" />
        </mxCell>
        <mxCell id="s34speLlv4YLylVvRb2c-51" value="1" style="edgeLabel;resizable=0;html=1;align=right;verticalAlign=top;" connectable="0" vertex="1" parent="s34speLlv4YLylVvRb2c-49">
          <mxGeometry x="1" relative="1" as="geometry" />
        </mxCell>
        <mxCell id="s34speLlv4YLylVvRb2c-52" value="Relation" style="endArrow=open;html=1;endSize=12;startArrow=diamondThin;startSize=14;startFill=0;edgeStyle=orthogonalEdgeStyle;rounded=0;" edge="1" parent="WIyWlLk6GJQsqaUBKTNV-1" source="s34speLlv4YLylVvRb2c-0" target="s34speLlv4YLylVvRb2c-12">
          <mxGeometry relative="1" as="geometry">
            <mxPoint x="-300" y="430" as="sourcePoint" />
            <mxPoint x="-140" y="430" as="targetPoint" />
          </mxGeometry>
        </mxCell>
        <mxCell id="s34speLlv4YLylVvRb2c-53" value="1" style="edgeLabel;resizable=0;html=1;align=left;verticalAlign=top;" connectable="0" vertex="1" parent="s34speLlv4YLylVvRb2c-52">
          <mxGeometry x="-1" relative="1" as="geometry" />
        </mxCell>
        <mxCell id="s34speLlv4YLylVvRb2c-54" value="0..n" style="edgeLabel;resizable=0;html=1;align=right;verticalAlign=top;" connectable="0" vertex="1" parent="s34speLlv4YLylVvRb2c-52">
          <mxGeometry x="1" relative="1" as="geometry" />
        </mxCell>
        <mxCell id="s34speLlv4YLylVvRb2c-55" value="Relation" style="endArrow=open;html=1;endSize=12;startArrow=diamondThin;startSize=14;startFill=0;edgeStyle=orthogonalEdgeStyle;rounded=0;" edge="1" parent="WIyWlLk6GJQsqaUBKTNV-1" source="s34speLlv4YLylVvRb2c-0" target="s34speLlv4YLylVvRb2c-40">
          <mxGeometry relative="1" as="geometry">
            <mxPoint x="-640" y="317" as="sourcePoint" />
            <mxPoint x="-450" y="195" as="targetPoint" />
          </mxGeometry>
        </mxCell>
        <mxCell id="s34speLlv4YLylVvRb2c-56" value="1" style="edgeLabel;resizable=0;html=1;align=left;verticalAlign=top;" connectable="0" vertex="1" parent="s34speLlv4YLylVvRb2c-55">
          <mxGeometry x="-1" relative="1" as="geometry" />
        </mxCell>
        <mxCell id="s34speLlv4YLylVvRb2c-57" value="1..n" style="edgeLabel;resizable=0;html=1;align=right;verticalAlign=top;" connectable="0" vertex="1" parent="s34speLlv4YLylVvRb2c-55">
          <mxGeometry x="1" relative="1" as="geometry" />
        </mxCell>
        <mxCell id="s34speLlv4YLylVvRb2c-58" value="Relation" style="endArrow=open;html=1;endSize=12;startArrow=diamondThin;startSize=14;startFill=0;edgeStyle=orthogonalEdgeStyle;rounded=0;" edge="1" parent="WIyWlLk6GJQsqaUBKTNV-1" source="s34speLlv4YLylVvRb2c-0" target="s34speLlv4YLylVvRb2c-31">
          <mxGeometry relative="1" as="geometry">
            <mxPoint x="-640" y="317" as="sourcePoint" />
            <mxPoint x="-450" y="415" as="targetPoint" />
            <Array as="points">
              <mxPoint x="-600" y="307" />
              <mxPoint x="-600" y="621" />
            </Array>
          </mxGeometry>
        </mxCell>
        <mxCell id="s34speLlv4YLylVvRb2c-59" value="1" style="edgeLabel;resizable=0;html=1;align=left;verticalAlign=top;" connectable="0" vertex="1" parent="s34speLlv4YLylVvRb2c-58">
          <mxGeometry x="-1" relative="1" as="geometry" />
        </mxCell>
        <mxCell id="s34speLlv4YLylVvRb2c-60" value="0..n" style="edgeLabel;resizable=0;html=1;align=right;verticalAlign=top;" connectable="0" vertex="1" parent="s34speLlv4YLylVvRb2c-58">
          <mxGeometry x="1" relative="1" as="geometry" />
        </mxCell>
        <mxCell id="s34speLlv4YLylVvRb2c-62" value="Tipo_Cartão" style="swimlane;fontStyle=0;childLayout=stackLayout;horizontal=1;startSize=26;fillColor=#dae8fc;horizontalStack=0;resizeParent=1;resizeParentMax=0;resizeLast=0;collapsible=1;marginBottom=0;whiteSpace=wrap;html=1;strokeColor=#6c8ebf;" vertex="1" parent="WIyWlLk6GJQsqaUBKTNV-1">
          <mxGeometry x="-190" y="556" width="140" height="78" as="geometry" />
        </mxCell>
        <mxCell id="s34speLlv4YLylVvRb2c-63" value="1 = Crédito" style="text;strokeColor=none;fillColor=none;align=left;verticalAlign=top;spacingLeft=4;spacingRight=4;overflow=hidden;rotatable=0;points=[[0,0.5],[1,0.5]];portConstraint=eastwest;whiteSpace=wrap;html=1;" vertex="1" parent="s34speLlv4YLylVvRb2c-62">
          <mxGeometry y="26" width="140" height="26" as="geometry" />
        </mxCell>
        <mxCell id="s34speLlv4YLylVvRb2c-64" value="2 = Débito" style="text;strokeColor=none;fillColor=none;align=left;verticalAlign=top;spacingLeft=4;spacingRight=4;overflow=hidden;rotatable=0;points=[[0,0.5],[1,0.5]];portConstraint=eastwest;whiteSpace=wrap;html=1;" vertex="1" parent="s34speLlv4YLylVvRb2c-62">
          <mxGeometry y="52" width="140" height="26" as="geometry" />
        </mxCell>
        <mxCell id="s34speLlv4YLylVvRb2c-66" value="Relation" style="endArrow=open;html=1;endSize=12;startArrow=diamondThin;startSize=14;startFill=0;edgeStyle=orthogonalEdgeStyle;rounded=0;exitX=1;exitY=0.5;exitDx=0;exitDy=0;" edge="1" parent="WIyWlLk6GJQsqaUBKTNV-1" source="s34speLlv4YLylVvRb2c-33" target="s34speLlv4YLylVvRb2c-62">
          <mxGeometry relative="1" as="geometry">
            <mxPoint x="-640" y="317" as="sourcePoint" />
            <mxPoint x="-450" y="631" as="targetPoint" />
            <Array as="points" />
          </mxGeometry>
        </mxCell>
        <mxCell id="s34speLlv4YLylVvRb2c-67" value="1" style="edgeLabel;resizable=0;html=1;align=left;verticalAlign=top;" connectable="0" vertex="1" parent="s34speLlv4YLylVvRb2c-66">
          <mxGeometry x="-1" relative="1" as="geometry" />
        </mxCell>
        <mxCell id="s34speLlv4YLylVvRb2c-68" value="1" style="edgeLabel;resizable=0;html=1;align=right;verticalAlign=top;" connectable="0" vertex="1" parent="s34speLlv4YLylVvRb2c-66">
          <mxGeometry x="1" relative="1" as="geometry" />
        </mxCell>
        <mxCell id="s34speLlv4YLylVvRb2c-69" value="Forma_Pagamento" style="swimlane;fontStyle=0;childLayout=stackLayout;horizontal=1;startSize=26;fillColor=#dae8fc;horizontalStack=0;resizeParent=1;resizeParentMax=0;resizeLast=0;collapsible=1;marginBottom=0;whiteSpace=wrap;html=1;strokeColor=#6c8ebf;" vertex="1" parent="WIyWlLk6GJQsqaUBKTNV-1">
          <mxGeometry x="-175" y="260" width="145" height="130" as="geometry">
            <mxRectangle x="-175" y="260" width="140" height="30" as="alternateBounds" />
          </mxGeometry>
        </mxCell>
        <mxCell id="s34speLlv4YLylVvRb2c-70" value="0 = Cartão de débito" style="text;strokeColor=none;fillColor=none;align=left;verticalAlign=top;spacingLeft=4;spacingRight=4;overflow=hidden;rotatable=0;points=[[0,0.5],[1,0.5]];portConstraint=eastwest;whiteSpace=wrap;html=1;" vertex="1" parent="s34speLlv4YLylVvRb2c-69">
          <mxGeometry y="26" width="145" height="26" as="geometry" />
        </mxCell>
        <mxCell id="s34speLlv4YLylVvRb2c-71" value="1 = Cartão de crédito" style="text;strokeColor=none;fillColor=none;align=left;verticalAlign=top;spacingLeft=4;spacingRight=4;overflow=hidden;rotatable=0;points=[[0,0.5],[1,0.5]];portConstraint=eastwest;whiteSpace=wrap;html=1;" vertex="1" parent="s34speLlv4YLylVvRb2c-69">
          <mxGeometry y="52" width="145" height="26" as="geometry" />
        </mxCell>
        <mxCell id="s34speLlv4YLylVvRb2c-72" value="2 = Dinheiro em espécie" style="text;strokeColor=none;fillColor=none;align=left;verticalAlign=top;spacingLeft=4;spacingRight=4;overflow=hidden;rotatable=0;points=[[0,0.5],[1,0.5]];portConstraint=eastwest;whiteSpace=wrap;html=1;" vertex="1" parent="s34speLlv4YLylVvRb2c-69">
          <mxGeometry y="78" width="145" height="26" as="geometry" />
        </mxCell>
        <mxCell id="s34speLlv4YLylVvRb2c-83" value="3 = Pix" style="text;strokeColor=none;fillColor=none;align=left;verticalAlign=top;spacingLeft=4;spacingRight=4;overflow=hidden;rotatable=0;points=[[0,0.5],[1,0.5]];portConstraint=eastwest;whiteSpace=wrap;html=1;" vertex="1" parent="s34speLlv4YLylVvRb2c-69">
          <mxGeometry y="104" width="145" height="26" as="geometry" />
        </mxCell>
        <mxCell id="s34speLlv4YLylVvRb2c-73" value="Bandeira_Cartão" style="swimlane;fontStyle=0;childLayout=stackLayout;horizontal=1;startSize=26;fillColor=#dae8fc;horizontalStack=0;resizeParent=1;resizeParentMax=0;resizeLast=0;collapsible=1;marginBottom=0;whiteSpace=wrap;html=1;strokeColor=#6c8ebf;" vertex="1" parent="WIyWlLk6GJQsqaUBKTNV-1">
          <mxGeometry x="-190" y="650" width="140" height="104" as="geometry" />
        </mxCell>
        <mxCell id="s34speLlv4YLylVvRb2c-74" value="0 = Visa" style="text;strokeColor=none;fillColor=none;align=left;verticalAlign=top;spacingLeft=4;spacingRight=4;overflow=hidden;rotatable=0;points=[[0,0.5],[1,0.5]];portConstraint=eastwest;whiteSpace=wrap;html=1;" vertex="1" parent="s34speLlv4YLylVvRb2c-73">
          <mxGeometry y="26" width="140" height="26" as="geometry" />
        </mxCell>
        <mxCell id="s34speLlv4YLylVvRb2c-75" value="1 = Mastercard" style="text;strokeColor=none;fillColor=none;align=left;verticalAlign=top;spacingLeft=4;spacingRight=4;overflow=hidden;rotatable=0;points=[[0,0.5],[1,0.5]];portConstraint=eastwest;whiteSpace=wrap;html=1;" vertex="1" parent="s34speLlv4YLylVvRb2c-73">
          <mxGeometry y="52" width="140" height="26" as="geometry" />
        </mxCell>
        <mxCell id="s34speLlv4YLylVvRb2c-76" value="...." style="text;strokeColor=none;fillColor=none;align=left;verticalAlign=top;spacingLeft=4;spacingRight=4;overflow=hidden;rotatable=0;points=[[0,0.5],[1,0.5]];portConstraint=eastwest;whiteSpace=wrap;html=1;" vertex="1" parent="s34speLlv4YLylVvRb2c-73">
          <mxGeometry y="78" width="140" height="26" as="geometry" />
        </mxCell>
        <mxCell id="s34speLlv4YLylVvRb2c-77" value="Relation" style="endArrow=open;html=1;endSize=12;startArrow=diamondThin;startSize=14;startFill=0;edgeStyle=orthogonalEdgeStyle;rounded=0;exitX=1;exitY=0.5;exitDx=0;exitDy=0;" edge="1" parent="WIyWlLk6GJQsqaUBKTNV-1" source="s34speLlv4YLylVvRb2c-34" target="s34speLlv4YLylVvRb2c-73">
          <mxGeometry relative="1" as="geometry">
            <mxPoint x="-280" y="605" as="sourcePoint" />
            <mxPoint x="-180" y="605" as="targetPoint" />
            <Array as="points">
              <mxPoint x="-250" y="621" />
              <mxPoint x="-250" y="670" />
            </Array>
          </mxGeometry>
        </mxCell>
        <mxCell id="s34speLlv4YLylVvRb2c-78" value="1" style="edgeLabel;resizable=0;html=1;align=left;verticalAlign=top;" connectable="0" vertex="1" parent="s34speLlv4YLylVvRb2c-77">
          <mxGeometry x="-1" relative="1" as="geometry" />
        </mxCell>
        <mxCell id="s34speLlv4YLylVvRb2c-79" value="1" style="edgeLabel;resizable=0;html=1;align=right;verticalAlign=top;" connectable="0" vertex="1" parent="s34speLlv4YLylVvRb2c-77">
          <mxGeometry x="1" relative="1" as="geometry" />
        </mxCell>
        <mxCell id="s34speLlv4YLylVvRb2c-80" value="Relation" style="endArrow=open;html=1;endSize=12;startArrow=diamondThin;startSize=14;startFill=0;edgeStyle=orthogonalEdgeStyle;rounded=0;exitX=1;exitY=0.5;exitDx=0;exitDy=0;" edge="1" parent="WIyWlLk6GJQsqaUBKTNV-1" source="s34speLlv4YLylVvRb2c-19" target="s34speLlv4YLylVvRb2c-69">
          <mxGeometry relative="1" as="geometry">
            <mxPoint x="-280" y="207" as="sourcePoint" />
            <mxPoint x="-165" y="208" as="targetPoint" />
            <Array as="points">
              <mxPoint x="-230" y="223" />
              <mxPoint x="-230" y="270" />
            </Array>
          </mxGeometry>
        </mxCell>
        <mxCell id="s34speLlv4YLylVvRb2c-81" value="1" style="edgeLabel;resizable=0;html=1;align=left;verticalAlign=top;" connectable="0" vertex="1" parent="s34speLlv4YLylVvRb2c-80">
          <mxGeometry x="-1" relative="1" as="geometry" />
        </mxCell>
        <mxCell id="s34speLlv4YLylVvRb2c-82" value="1" style="edgeLabel;resizable=0;html=1;align=right;verticalAlign=top;" connectable="0" vertex="1" parent="s34speLlv4YLylVvRb2c-80">
          <mxGeometry x="1" relative="1" as="geometry" />
        </mxCell>
      </root>
    </mxGraphModel>
  </diagram>
</mxfile>
